<?xml version="1.0" standalone="no"?>
<!DOCTYPE svg PUBLIC "-//W3C//DTD SVG 20010904//EN"
 "http://www.w3.org/TR/2001/REC-SVG-20010904/DTD/svg10.dtd">
<svg version="1.0" xmlns="http://www.w3.org/2000/svg"
 viewBox="0 0 200.000000 187.000000"
 preserveAspectRatio="xMidYMid meet">
<g>
        <path d="M159.665 137.29v-17.314h-17.264v17.314h17.264zm-13.144-13.183h9.024v9.05h-9.024v-9.05z" fill="#29abe2" data-color="1"></path>
        <path d="M159.665 92.781h-17.264v17.314h17.264V92.781zm-4.12 13.183h-9.024v-9.051h9.024v9.051z" fill="#29abe2" data-color="1"></path>
        <path d="M42.395 137.29h17.264v-17.314H42.395v17.314zm4.12-13.183h9.024v9.05h-9.024v-9.05z" fill="#29abe2" data-color="1"></path>
        <path d="M42.395 92.781v17.314h17.264V92.781H42.395zm13.144 13.183h-9.024v-9.051h9.024v9.051z" fill="#29abe2" data-color="1"></path>
        <path d="m123.219 103.712-17.26.002v17.31h17.26v-17.312zm-4.12 13.181h-9.02v-9.047l9.02-.002v9.049z" fill="#29abe2" data-color="1"></path>
        <path d="m96.105 103.712-17.264.002v17.31h17.264v-17.312zm-4.12 13.181h-9.024v-9.047l9.024-.002v9.049z" fill="#29abe2" data-color="1"></path>
        <path d="M123.219 76.518h-17.26v17.314h17.26V76.518zm-4.12 13.183h-9.02V80.65h9.02v9.051z" fill="#29abe2" data-color="1"></path>
        <path d="M96.105 76.518H78.841v17.314h17.264V76.518zm-4.12 13.183h-9.024V80.65h9.024v9.051z" fill="#29abe2" data-color="1"></path>
        <path d="M123.219 49.324h-17.26v17.314h17.26V49.324zm-4.12 13.182h-9.02v-9.051h9.02v9.051z" fill="#29abe2" data-color="1"></path>
        <path d="M96.105 49.324H78.841v17.314h17.264V49.324zm-4.12 13.182h-9.024v-9.051h9.024v9.051z" fill="#29abe2" data-color="1"></path>
        <path d="M171.381 161.835V88.637c0-4.653-3.776-8.439-8.417-8.439h-26.501V41.439c0-4.653-3.774-8.439-8.413-8.439H74.009c-4.639 0-8.413 3.786-8.413 8.439v38.759h-26.5c-4.641 0-8.417 3.786-8.417 8.439v73.198H20V167h160v-5.165h-8.619zm-8.417-76.472a3.275 3.275 0 0 1 3.267 3.274v73.198h-29.768V85.363h26.501zM74.009 38.165h54.041c1.8 0 3.263 1.469 3.263 3.274v120.396H113.04v-27.111H89.02v27.111H70.746V41.439a3.273 3.273 0 0 1 3.263-3.274zm19.131 123.67v-22.98h15.779v22.98H93.14zM35.829 88.637a3.273 3.273 0 0 1 3.267-3.274h26.501v76.472H35.829V88.637z" fill="#29abe2" data-color="1"></path>
    </g>
</svg>