<?xml version="1.0" standalone="no"?>
<!DOCTYPE svg PUBLIC "-//W3C//DTD SVG 20010904//EN"
 "http://www.w3.org/TR/2001/REC-SVG-20010904/DTD/svg10.dtd">
<svg version="1.0" xmlns="http://www.w3.org/2000/svg"
 width="512.000000pt" height="512.000000pt" viewBox="0 0 512.000000 512.000000"
 preserveAspectRatio="xMidYMid meet">

<g transform="translate(0.000000,512.000000) scale(0.100000,-0.100000)"
fill="#327fd1" stroke="none">
<path d="M2477 4946 c-129 -48 -207 -166 -194 -292 9 -91 61 -169 143 -215
l54 -31 0 -289 0 -289 -42 0 c-36 0 -140 -19 -255 -47 l-23 -5 0 208 0 207
-131 133 -132 132 12 33 c50 142 -74 309 -229 309 -84 0 -171 -55 -212 -134
-30 -56 -31 -155 -1 -211 56 -105 180 -159 283 -124 32 12 32 12 141 -97 l109
-109 0 -206 0 -207 -79 -46 c-190 -110 -354 -274 -471 -473 l-42 -73 -207 0
-206 0 -109 109 c-109 109 -109 109 -97 141 50 143 -74 310 -229 310 -84 0
-171 -55 -212 -134 -30 -56 -31 -155 -1 -211 56 -105 180 -159 282 -124 l33
12 132 -132 133 -131 206 0 c114 0 207 -4 207 -9 0 -4 -9 -44 -20 -88 -11 -43
-22 -111 -26 -151 l-7 -72 -288 0 -287 0 -22 45 c-30 62 -101 122 -168 141
-131 38 -261 -17 -327 -138 -25 -45 -29 -64 -29 -128 0 -112 47 -191 143 -244
137 -74 314 -19 381 119 l22 45 287 0 288 0 7 -72 c4 -40 15 -108 26 -151 11
-44 20 -84 20 -88 0 -5 -93 -9 -206 -9 l-206 0 -133 -131 c-134 -131 -134
-131 -166 -120 -102 35 -227 -19 -281 -123 -46 -86 -24 -209 49 -278 93 -89
225 -89 323 -1 71 64 98 159 69 243 -12 32 -12 32 97 141 l109 109 206 0 207
0 43 -72 c120 -204 279 -364 470 -474 l79 -46 0 -207 0 -206 -109 -109 c-109
-109 -109 -109 -141 -97 -103 35 -228 -19 -282 -123 -46 -86 -24 -209 49 -278
93 -89 225 -89 323 -1 71 63 98 159 69 242 l-12 33 132 132 131 133 0 207 0
208 23 -5 c115 -28 219 -47 255 -47 l42 0 0 -290 0 -290 -47 -24 c-98 -50
-148 -132 -148 -246 0 -112 47 -190 147 -245 46 -26 63 -30 128 -30 62 0 84 5
126 27 203 106 204 392 3 494 l-49 24 2 288 3 287 70 8 c39 4 107 16 153 27
46 11 85 20 88 20 2 0 4 -88 4 -196 0 -123 4 -203 11 -217 6 -12 65 -76 131
-143 l120 -121 -12 -44 c-30 -111 28 -228 140 -278 149 -68 330 52 330 220 0
155 -167 277 -310 228 -32 -12 -32 -12 -141 97 l-109 109 0 206 0 207 63 36
c195 109 384 297 493 492 l36 64 207 0 206 0 108 -108 109 -109 -12 -44 c-30
-111 28 -228 140 -278 149 -68 330 52 330 220 0 155 -167 277 -309 228 l-33
-12 -132 132 -133 131 -206 0 c-114 0 -207 3 -207 6 0 3 7 34 16 68 9 33 22
102 28 151 l12 90 287 3 286 2 20 -39 c31 -60 69 -100 125 -129 42 -22 64 -26
126 -26 116 0 198 50 250 153 96 192 -62 420 -275 398 -98 -10 -179 -67 -226
-158 l-20 -39 -286 2 -287 3 -12 90 c-6 50 -19 118 -28 151 -9 34 -16 65 -16
68 0 3 93 6 207 6 l206 0 133 131 132 132 33 -12 c142 -49 309 73 309 228 0
127 -114 241 -240 241 -150 0 -269 -154 -230 -299 l12 -44 -109 -109 -108
-108 -206 0 -207 0 -36 64 c-112 199 -293 380 -498 496 l-58 32 0 207 0 206
109 109 c109 109 109 109 141 97 143 -49 310 73 310 228 0 127 -114 241 -240
241 -150 0 -269 -154 -230 -299 l12 -44 -120 -121 c-66 -67 -125 -131 -131
-143 -7 -14 -11 -94 -11 -217 0 -108 -2 -196 -4 -196 -3 0 -42 9 -88 20 -46
11 -114 23 -153 27 l-70 8 -3 287 -2 288 45 21 c159 75 204 293 88 428 -69 82
-205 121 -296 87z m167 -185 c26 -27 31 -39 31 -81 0 -43 -5 -54 -33 -82 -28
-28 -39 -33 -82 -33 -43 0 -54 5 -82 33 -28 28 -33 39 -33 81 0 52 25 92 70
112 37 16 96 3 129 -30z m-909 -146 c50 -49 15 -135 -55 -135 -41 0 -80 39
-80 80 0 41 39 80 80 80 19 0 40 -9 55 -25z m1760 0 c16 -15 25 -36 25 -55 0
-19 -9 -40 -25 -55 -15 -16 -36 -25 -55 -25 -19 0 -40 9 -55 25 -16 15 -25 36
-25 55 0 19 9 40 25 55 15 16 36 25 55 25 19 0 40 -9 55 -25z m-765 -950 c235
-35 449 -144 620 -315 98 -98 163 -191 225 -322 198 -420 108 -925 -225 -1258
-176 -175 -395 -284 -645 -320 -407 -58 -839 138 -1072 485 -374 556 -181
1311 414 1618 215 111 444 149 683 112z m-2115 -170 c50 -49 15 -135 -55 -135
-41 0 -80 39 -80 80 0 41 39 80 80 80 19 0 40 -9 55 -25z m4000 0 c16 -15 25
-36 25 -55 0 -19 -9 -40 -25 -55 -15 -16 -36 -25 -55 -25 -19 0 -40 9 -55 25
-16 15 -25 36 -25 55 0 19 9 40 25 55 15 16 36 25 55 25 19 0 40 -9 55 -25z
m-4091 -854 c26 -27 31 -39 31 -81 0 -43 -5 -54 -33 -82 -28 -28 -39 -33 -82
-33 -43 0 -54 5 -82 33 -28 28 -33 39 -33 81 0 52 25 92 70 112 37 16 96 3
129 -30z m4240 0 c26 -27 31 -39 31 -81 0 -43 -5 -54 -33 -82 -28 -28 -39 -33
-82 -33 -43 0 -54 5 -82 33 -28 28 -33 39 -33 81 0 52 25 92 70 112 37 16 96
3 129 -30z m-4149 -906 c50 -49 15 -135 -55 -135 -41 0 -80 39 -80 80 0 41 39
80 80 80 19 0 40 -9 55 -25z m4000 0 c50 -49 15 -135 -55 -135 -41 0 -80 39
-80 80 0 41 39 80 80 80 19 0 40 -9 55 -25z m-2880 -1120 c50 -49 15 -135 -55
-135 -41 0 -80 39 -80 80 0 41 39 80 80 80 19 0 40 -9 55 -25z m1760 0 c50
-49 15 -135 -55 -135 -41 0 -80 39 -80 80 0 41 39 80 80 80 19 0 40 -9 55 -25z
m-851 -94 c26 -27 31 -39 31 -81 0 -43 -5 -54 -33 -82 -28 -28 -39 -33 -82
-33 -43 0 -54 5 -82 33 -28 28 -33 39 -33 81 0 52 25 92 70 112 37 16 96 3
129 -30z"/>
<path d="M2505 3419 c-316 -171 -714 -396 -727 -411 -17 -19 -18 -55 -18 -448
0 -393 1 -429 18 -448 9 -11 185 -113 391 -227 296 -164 379 -206 400 -202 42
9 733 396 764 428 l27 29 0 415 c0 285 -4 422 -11 439 -8 18 -110 79 -383 231
-204 113 -382 209 -396 211 -15 3 -42 -4 -65 -17z m333 -304 c149 -82 271
-152 271 -155 1 -3 -123 -74 -274 -157 l-275 -153 -274 153 c-151 83 -271 156
-266 160 11 12 534 305 541 303 3 0 128 -68 277 -151z m-637 -447 l274 -153 3
-308 c1 -170 -1 -307 -6 -305 -5 1 -131 71 -280 153 l-272 150 0 308 c0 169 2
307 4 307 2 0 127 -69 277 -152z m999 -155 l0 -308 -271 -150 c-149 -82 -275
-152 -280 -153 -6 -2 -8 117 -7 304 l3 309 275 152 c151 84 276 153 278 153 1
0 2 -138 2 -307z"/>
</g>
</svg>
