<?xml version="1.0" standalone="no"?>
<!DOCTYPE svg PUBLIC "-//W3C//DTD SVG 20010904//EN"
 "http://www.w3.org/TR/2001/REC-SVG-20010904/DTD/svg10.dtd">
<svg version="1.0" xmlns="http://www.w3.org/2000/svg"
 width="512.000000pt" height="512.000000pt" viewBox="0 0 512.000000 512.000000"
 preserveAspectRatio="xMidYMid meet">

<g transform="translate(0.000000,512.000000) scale(0.100000,-0.100000)"
fill="#327fd1" stroke="none">
<path d="M1994 4831 c-71 -32 -119 -94 -204 -261 -43 -85 -88 -164 -99 -174
-24 -22 -61 -19 -234 20 -196 45 -298 34 -376 -39 -66 -63 -78 -115 -85 -362
-2 -82 -9 -162 -15 -176 -11 -31 -46 -45 -221 -85 -207 -48 -295 -105 -326
-211 -25 -87 -12 -142 82 -345 41 -86 64 -149 64 -172 0 -37 -7 -45 -208 -209
-124 -102 -177 -207 -153 -304 22 -88 80 -156 236 -277 97 -75 125 -107 125
-144 0 -20 -25 -87 -64 -170 -94 -203 -107 -258 -82 -345 31 -106 119 -163
326 -211 174 -40 210 -54 221 -84 6 -15 12 -99 15 -187 2 -88 7 -178 10 -200
15 -93 70 -167 149 -201 61 -26 167 -21 326 15 164 37 189 38 216 8 11 -12 55
-89 96 -172 108 -214 173 -274 298 -275 75 0 162 44 294 151 180 144 168 145
365 -11 131 -103 205 -140 280 -140 124 1 189 61 297 275 41 83 85 160 96 172
27 30 50 29 215 -8 233 -53 333 -41 411 47 54 62 69 129 75 334 2 91 9 177 14
191 12 31 47 45 222 85 205 47 295 106 326 211 25 87 12 142 -82 345 -39 83
-64 150 -64 170 0 37 28 69 125 144 156 121 214 189 236 276 24 98 -29 203
-153 305 -201 164 -208 172 -208 209 0 23 23 86 64 172 94 203 107 258 82 345
-31 106 -112 160 -314 208 -190 45 -222 57 -233 88 -6 14 -12 94 -15 176 -6
245 -19 299 -85 362 -78 73 -180 84 -376 39 -173 -39 -210 -42 -234 -20 -11
10 -56 89 -99 174 -111 219 -176 279 -300 280 -75 0 -149 -37 -280 -140 -197
-156 -185 -155 -365 -11 -132 107 -219 151 -294 151 -33 0 -73 -8 -97 -19z
m177 -237 c34 -26 95 -72 135 -104 104 -83 173 -114 254 -114 88 0 146 29 302
151 151 117 161 122 189 97 11 -10 54 -85 95 -166 122 -241 190 -296 354 -285
47 3 135 17 197 31 122 28 187 33 200 14 4 -7 11 -98 14 -203 11 -338 48 -383
377 -464 90 -22 170 -45 178 -52 25 -21 15 -58 -51 -199 -100 -212 -114 -295
-65 -390 30 -58 72 -103 185 -194 114 -92 155 -133 155 -156 0 -22 -46 -67
-160 -160 -244 -197 -259 -275 -115 -580 66 -141 76 -178 51 -199 -8 -7 -88
-30 -178 -52 -179 -44 -262 -81 -309 -138 -49 -59 -61 -116 -68 -326 -3 -104
-10 -196 -14 -202 -13 -20 -77 -15 -222 17 -307 68 -382 32 -527 -255 -42 -83
-86 -159 -97 -169 -28 -25 -38 -20 -189 97 -156 122 -214 151 -302 151 -88 0
-146 -29 -302 -151 -151 -117 -161 -122 -189 -97 -11 10 -54 85 -95 166 -122
241 -190 296 -354 285 -47 -3 -135 -17 -197 -31 -122 -28 -187 -33 -200 -13
-4 6 -11 98 -14 202 -11 338 -48 383 -377 464 -90 22 -170 45 -178 52 -25 21
-15 58 51 199 144 306 127 387 -120 585 -110 87 -155 133 -155 156 0 22 39 61
159 158 245 198 260 276 116 581 -67 141 -76 178 -50 200 8 6 87 30 176 52
222 54 289 90 333 177 34 67 46 145 46 307 0 177 5 194 60 194 23 0 92 -12
153 -26 323 -74 403 -38 548 249 71 141 102 187 125 187 6 0 40 -21 75 -46z"/>
<path d="M1945 3457 c-150 -38 -253 -147 -284 -299 -33 -158 54 -325 207 -400
60 -30 75 -33 157 -33 80 0 97 4 155 31 83 39 145 101 184 184 27 58 31 75 31
155 0 82 -3 97 -33 157 -77 157 -257 245 -417 205z m155 -222 c63 -33 99 -115
80 -184 -14 -52 -75 -107 -129 -116 -54 -9 -126 25 -159 75 -30 45 -28 130 6
177 41 58 138 81 202 48z"/>
<path d="M3255 3399 c-31 -17 -1514 -1501 -1531 -1531 -38 -72 6 -158 81 -158
20 0 46 5 58 11 31 16 1515 1498 1533 1531 39 73 -6 158 -83 158 -21 0 -47 -5
-58 -11z"/>
<path d="M2995 2387 c-113 -38 -191 -105 -239 -207 -28 -58 -31 -75 -31 -155
0 -82 3 -97 33 -157 75 -153 242 -240 400 -207 158 32 270 144 302 301 31 156
-55 325 -205 399 -75 37 -192 48 -260 26z m165 -219 c66 -34 93 -79 88 -149
-7 -94 -66 -149 -161 -149 -58 0 -105 32 -135 92 -32 63 -24 115 25 169 55 60
113 72 183 37z"/>
</g>
</svg>
