<?xml version="1.0" encoding="UTF-8"?>
<!DOCTYPE svg PUBLIC "-//W3C//DTD SVG 1.1//EN" "http://www.w3.org/Graphics/SVG/1.1/DTD/svg11.dtd">
<svg xmlns="http://www.w3.org/2000/svg" version="1.1" width="512px" height="512px" style="shape-rendering:geometricPrecision; text-rendering:geometricPrecision; image-rendering:optimizeQuality; fill-rule:evenodd; clip-rule:evenodd" xmlns:xlink="http://www.w3.org/1999/xlink">
<g><path style="opacity:0.93" fill="#327fd1" d="M -0.5,327.5 C -0.5,316.167 -0.5,304.833 -0.5,293.5C 7.74874,240.673 29.2487,194.006 64,153.5C 75.7118,140.778 88.8785,129.944 103.5,121C 105.764,119.221 107.097,116.887 107.5,114C 100.481,101.467 93.3138,88.9666 86,76.5C 78.7903,64.037 74.2903,50.7037 72.5,36.5C 71.9279,27.4644 75.9279,21.6311 84.5,19C 94.2318,18.5395 103.898,19.2061 113.5,21C 128.397,25.3499 143.563,28.1833 159,29.5C 166.219,29.1185 173.385,28.2852 180.5,27C 196.558,22.5549 212.892,19.7216 229.5,18.5C 242.822,20.5133 247.656,28.1799 244,41.5C 242.464,48.7732 240.131,55.7732 237,62.5C 229.097,79.3087 220.431,95.642 211,111.5C 210.441,115.553 211.941,118.72 215.5,121C 247.721,142.222 272.555,170.056 290,204.5C 290.832,210.672 288.166,214.339 282,215.5C 279.3,215.27 276.967,214.27 275,212.5C 257.012,178.176 231.679,150.509 199,129.5C 195.044,123.797 193.211,117.463 193.5,110.5C 174.497,110.667 155.497,110.5 136.5,110C 131.699,106.887 130.532,102.72 133,97.5C 134.319,95.5125 136.152,94.3459 138.5,94C 159.508,93.8331 180.508,93.3331 201.5,92.5C 213.157,74.8543 221.823,55.8543 227.5,35.5C 210.366,37.866 193.366,41.0327 176.5,45C 164.831,46.9633 153.164,46.9633 141.5,45C 131.425,42.9813 121.425,40.648 111.5,38C 104.207,36.7638 96.8739,35.9304 89.5,35.5C 89.7429,41.8048 91.2429,47.8048 94,53.5C 102.653,71.4789 112.319,88.8122 123,105.5C 124.015,109.44 124.515,113.44 124.5,117.5C 143.503,117.333 162.503,117.5 181.5,118C 188.901,122.926 189.235,128.259 182.5,134C 159.5,134.333 136.5,134.667 113.5,135C 97.5154,144.98 83.3487,157.146 71,171.5C 41.8603,207.461 23.8603,248.461 17,294.5C 12.5632,350.142 35.3965,389.976 85.5,414C 100.512,420.67 116.179,425.003 132.5,427C 146.209,427.862 159.875,428.862 173.5,430C 176.318,433.338 177.151,437.171 176,441.5C 174.786,443.049 173.286,444.215 171.5,445C 132.657,448.099 96.3232,440.099 62.5,421C 27.408,399.312 6.40796,368.146 -0.5,327.5 Z"/></g>
<g><path style="opacity:0.944" fill="#327fd1" d="M 511.5,190.5 C 511.5,257.167 511.5,323.833 511.5,390.5C 508.41,396.758 503.743,401.592 497.5,405C 478.222,414.237 457.888,419.57 436.5,421C 428.022,421.87 419.522,422.37 411,422.5C 405.725,422.616 400.558,422.116 395.5,421C 392.606,418.091 391.773,414.591 393,410.5C 394.109,408.185 395.943,406.685 398.5,406C 422.173,406.194 445.506,403.528 468.5,398C 478.03,395.818 486.53,391.651 494,385.5C 495.675,381.915 495.842,378.248 494.5,374.5C 472.209,384.192 448.876,389.359 424.5,390C 416.167,390.667 407.833,390.667 399.5,390C 394.547,385.357 394.213,380.357 398.5,375C 421.03,374.194 443.363,371.527 465.5,367C 473.128,365.124 480.462,362.457 487.5,359C 492.189,356.666 494.856,352.999 495.5,348C 495.167,346.5 494.833,345 494.5,343.5C 481.165,349.835 467.165,354.001 452.5,356C 433.267,358.992 413.934,359.992 394.5,359C 387.879,352.836 388.546,347.503 396.5,343C 420.847,343.332 444.847,340.666 468.5,335C 476.236,332.977 483.569,329.977 490.5,326C 495.153,322.212 496.653,317.378 495,311.5C 483.315,317.885 470.815,322.052 457.5,324C 431.286,328.46 404.953,329.46 378.5,327C 374.212,323.229 373.379,318.729 376,313.5C 378.289,312.014 380.789,311.014 383.5,310.5C 417.356,313.756 450.356,309.923 482.5,299C 487.568,296.922 491.734,293.755 495,289.5C 495.667,286.5 495.667,283.5 495,280.5C 478.777,288.516 461.61,293.349 443.5,295C 406.129,299.597 369.129,297.597 332.5,289C 324.041,286.771 316.041,283.437 308.5,279C 304,275.833 300.167,272 297,267.5C 295.86,254.233 295.36,240.899 295.5,227.5C 286.014,195.614 297.014,175.447 328.5,167C 368.746,156.863 409.413,154.863 450.5,161C 455.155,163.897 456.655,168.063 455,173.5C 453.786,175.049 452.286,176.215 450.5,177C 434.882,175.783 419.215,174.949 403.5,174.5C 376.377,173.874 350.043,178.041 324.5,187C 320.127,188.713 316.293,191.213 313,194.5C 312.175,196.701 312.675,198.534 314.5,200C 326.537,207.235 339.537,211.902 353.5,214C 386.833,220 420.167,220 453.5,214C 467.463,211.902 480.463,207.235 492.5,200C 493.804,199.196 494.471,198.029 494.5,196.5C 493.394,193.559 491.394,191.392 488.5,190C 482.059,186.78 475.392,184.113 468.5,182C 461.642,177.775 460.975,172.775 466.5,167C 468.034,166.077 469.701,165.577 471.5,165.5C 485.683,168.158 497.849,174.491 508,184.5C 509.459,186.432 510.625,188.432 511.5,190.5 Z M 311.5,218.5 C 324.197,224.565 337.531,228.732 351.5,231C 392.433,237.587 433.099,236.253 473.5,227C 481.001,224.946 488.167,222.112 495,218.5C 496.426,223.757 495.259,228.257 491.5,232C 475.906,240.401 459.24,245.401 441.5,247C 413.788,250.51 386.121,250.176 358.5,246C 347.884,244.429 337.551,241.763 327.5,238C 322.167,235.996 317.334,233.163 313,229.5C 311.663,225.974 311.163,222.308 311.5,218.5 Z M 311.5,249.5 C 323.814,255.665 336.814,259.831 350.5,262C 393.208,269.188 435.542,267.521 477.5,257C 483.597,255.08 489.43,252.58 495,249.5C 496.426,254.757 495.259,259.257 491.5,263C 476.223,271.239 459.89,276.239 442.5,278C 404.245,283.148 366.579,280.482 329.5,270C 323.297,267.984 317.797,264.817 313,260.5C 311.663,256.974 311.163,253.308 311.5,249.5 Z"/></g>
<g><path style="opacity:0.928" fill="#327fd1" d="M 270.5,281.5 C 323.337,278.897 360.504,301.563 382,349.5C 395.978,393.627 386.812,432.127 354.5,465C 320.576,493.043 282.909,499.376 241.5,484C 204.633,466.786 183.467,437.953 178,397.5C 175.06,363.645 185.56,334.811 209.5,311C 217.033,307.524 221.699,309.857 223.5,318C 223,319.5 222.5,321 222,322.5C 192.053,354.793 186.72,390.793 206,430.5C 232.05,469.93 267.884,483.096 313.5,470C 345.932,456.895 365.099,433.061 371,398.5C 374.22,360.108 359.72,330.608 327.5,310C 296.97,294.395 266.637,294.728 236.5,311C 229.968,311.97 226.635,309.136 226.5,302.5C 226.404,300.074 227.07,297.907 228.5,296C 241.765,288.635 255.765,283.802 270.5,281.5 Z"/></g>
<g><path style="opacity:0.93" fill="#327fd1" d="M 277.5,315.5 C 284.019,313.884 288.186,316.218 290,322.5C 290.499,327.823 290.666,333.156 290.5,338.5C 304.939,338.77 314.439,345.77 319,359.5C 319.667,363.5 319.667,367.5 319,371.5C 314,376.833 309,376.833 304,371.5C 304.239,364.128 301.072,358.961 294.5,356C 286.167,355.333 277.833,355.333 269.5,356C 260.997,359.511 258.83,365.344 263,373.5C 264.731,375.617 266.898,377.117 269.5,378C 279.167,378.333 288.833,378.667 298.5,379C 315.486,384.79 322.32,396.624 319,414.5C 314.277,427.947 304.777,434.614 290.5,434.5C 290.877,441.257 290.377,447.924 289,454.5C 283.562,460.052 278.562,459.719 274,453.5C 273.5,447.175 273.334,440.842 273.5,434.5C 252.755,433.921 242.922,423.254 244,402.5C 248.643,397.547 253.643,397.213 259,401.5C 258.856,408.384 261.689,413.55 267.5,417C 276.833,417.667 286.167,417.667 295.5,417C 301.603,413.96 303.769,409.126 302,402.5C 300.878,400.376 299.378,398.543 297.5,397C 287.933,395.718 278.266,395.051 268.5,395C 253.502,391.699 245.169,382.366 243.5,367C 245.22,348.78 255.22,339.28 273.5,338.5C 273.334,332.158 273.5,325.825 274,319.5C 275.376,318.295 276.542,316.962 277.5,315.5 Z"/></g>
</svg>
