<?xml version="1.0" standalone="no"?>
<!DOCTYPE svg PUBLIC "-//W3C//DTD SVG 20010904//EN"
 "http://www.w3.org/TR/2001/REC-SVG-20010904/DTD/svg10.dtd">
<svg version="1.0" xmlns="http://www.w3.org/2000/svg"
 width="512.000000pt" height="512.000000pt" viewBox="0 0 512.000000 512.000000"
 preserveAspectRatio="xMidYMid meet">

<g transform="translate(0.000000,512.000000) scale(0.100000,-0.100000)"
fill="#327fd1" stroke="none">
<path d="M960 5027 c-49 -16 -133 -102 -148 -153 -17 -58 -17 -1369 0 -1426
15 -49 76 -120 125 -144 36 -18 78 -19 682 -24 l644 -5 114 -340 c118 -356
127 -375 183 -375 56 0 65 19 183 375 l114 340 644 5 c564 4 648 7 679 21 47
21 113 98 128 147 17 56 17 1368 0 1424 -6 22 -31 62 -55 88 -78 87 66 80
-1697 79 -1108 -1 -1571 -4 -1596 -12z m3175 -172 l25 -24 0 -671 0 -671 -25
-24 -24 -25 -668 0 c-579 0 -671 -2 -690 -15 -16 -11 -44 -81 -105 -265 -45
-138 -85 -250 -88 -250 -3 0 -43 112 -88 250 -61 184 -89 254 -105 265 -19 13
-111 15 -690 15 l-668 0 -24 25 -25 24 0 671 0 671 25 24 24 25 1551 0 1551 0
24 -25z"/>
<path d="M1305 4535 l-25 -24 0 -376 0 -375 80 0 80 0 0 120 0 120 120 0 120
0 0 80 0 80 -120 0 -120 0 0 120 0 120 120 0 120 0 0 80 0 80 -175 0 c-173 0
-176 0 -200 -25z"/>
<path d="M1840 4282 c0 -335 4 -358 84 -438 114 -113 278 -113 392 0 80 80 84
103 84 438 l0 278 -80 0 -79 0 -3 -285 -3 -285 -33 -32 c-28 -28 -39 -33 -82
-33 -43 0 -54 5 -82 33 l-33 32 -3 285 -3 285 -79 0 -80 0 0 -278z"/>
<path d="M2585 4535 l-25 -24 0 -376 0 -375 80 0 80 0 2 216 3 216 129 -207
c71 -113 138 -210 147 -216 31 -16 69 -10 94 16 l25 24 0 376 0 375 -80 0 -80
0 -2 -217 -3 -217 -124 199 c-68 110 -132 208 -143 218 -29 25 -74 22 -103 -8z"/>
<path d="M3306 4537 l-26 -26 0 -351 0 -351 26 -26 c25 -25 28 -25 128 -21 88
4 112 9 169 35 91 43 150 100 195 191 35 72 37 81 37 171 0 87 -3 102 -32 163
-43 92 -100 151 -190 195 -67 33 -83 37 -177 41 -102 4 -105 4 -130 -21z m208
-149 c86 -26 166 -136 166 -228 0 -115 -116 -240 -224 -240 -14 0 -16 25 -16
240 0 268 -6 251 74 228z"/>
<path d="M1865 2775 c-25 -24 -25 -26 -25 -215 0 -189 0 -191 25 -215 13 -14
31 -25 40 -25 12 0 15 -15 15 -80 l0 -80 -55 0 c-46 0 -60 -4 -80 -25 l-25
-24 0 -351 0 -351 25 -24 c20 -21 34 -25 80 -25 l55 0 0 -80 0 -80 -55 0 c-46
0 -60 -4 -80 -25 -25 -24 -25 -26 -25 -215 0 -189 0 -191 25 -215 20 -21 34
-25 80 -25 l55 0 0 -80 0 -80 -55 0 c-46 0 -60 -4 -80 -25 -25 -24 -25 -26
-25 -215 0 -189 0 -191 25 -215 l24 -25 671 0 671 0 24 25 c24 23 25 29 25
160 l0 135 55 0 c46 0 60 4 80 25 25 24 25 26 25 215 0 189 0 191 -25 215 -20
21 -34 25 -80 25 l-55 0 0 80 0 80 55 0 c46 0 60 4 80 25 25 24 25 26 25 215
0 189 0 191 -25 215 -20 21 -34 25 -80 25 l-55 0 0 240 0 240 55 0 c46 0 60 4
80 25 25 24 25 26 25 215 0 189 0 191 -25 215 -13 14 -31 25 -40 25 -13 0 -15
20 -15 135 0 131 -1 137 -25 160 -24 25 -24 25 -240 25 l-215 0 0 -80 0 -80
160 0 160 0 0 -80 0 -80 -560 0 -560 0 0 80 0 80 160 0 160 0 0 80 0 80 -215
0 c-216 0 -216 0 -240 -25z m375 -535 l0 -80 -80 0 -80 0 0 80 0 80 80 0 80 0
0 -80z m320 0 l0 -80 -80 0 -80 0 0 80 0 80 80 0 80 0 0 -80z m320 0 l0 -80
-80 0 -80 0 0 80 0 80 80 0 80 0 0 -80z m320 0 l0 -80 -80 0 -80 0 0 80 0 80
80 0 80 0 0 -80z m-160 -320 l0 -80 -560 0 -560 0 0 80 0 80 560 0 560 0 0
-80z m-960 -320 l0 -80 -80 0 -80 0 0 80 0 80 80 0 80 0 0 -80z m320 0 l0 -80
-80 0 -80 0 0 80 0 80 80 0 80 0 0 -80z m320 0 l0 -80 -80 0 -80 0 0 80 0 80
80 0 80 0 0 -80z m320 0 l0 -80 -80 0 -80 0 0 80 0 80 80 0 80 0 0 -80z m160
-320 l0 -80 -560 0 -560 0 0 80 0 80 560 0 560 0 0 -80z m-1120 -320 l0 -80
-80 0 -80 0 0 80 0 80 80 0 80 0 0 -80z m320 0 l0 -80 -80 0 -80 0 0 80 0 80
80 0 80 0 0 -80z m320 0 l0 -80 -80 0 -80 0 0 80 0 80 80 0 80 0 0 -80z m320
0 l0 -80 -80 0 -80 0 0 80 0 80 80 0 80 0 0 -80z m160 -320 l0 -80 -560 0
-560 0 0 80 0 80 560 0 560 0 0 -80z m-1120 -320 l0 -80 -80 0 -80 0 0 80 0
80 80 0 80 0 0 -80z m320 0 l0 -80 -80 0 -80 0 0 80 0 80 80 0 80 0 0 -80z
m320 0 l0 -80 -80 0 -80 0 0 80 0 80 80 0 80 0 0 -80z m320 0 l0 -80 -80 0
-80 0 0 80 0 80 80 0 80 0 0 -80z"/>
<path d="M265 2135 l-25 -24 0 -296 0 -295 -55 0 c-46 0 -60 -4 -80 -25 -25
-24 -25 -26 -25 -215 0 -189 0 -191 25 -215 20 -21 34 -25 80 -25 l55 0 0 -80
0 -80 -55 0 c-46 0 -60 -4 -80 -25 -25 -24 -25 -26 -25 -215 0 -189 0 -191 25
-215 20 -21 34 -25 80 -25 l55 0 0 -135 c0 -131 1 -137 25 -160 l24 -25 591 0
591 0 24 25 c25 24 25 26 25 215 0 189 0 191 -25 215 -20 21 -34 25 -80 25
l-55 0 0 80 0 80 55 0 c46 0 60 4 80 25 25 24 25 26 25 215 0 189 0 191 -25
215 -20 21 -34 25 -80 25 l-55 0 0 80 0 80 55 0 c46 0 60 4 80 25 l25 24 0
351 0 351 -25 24 -24 25 -591 0 -591 0 -24 -25z m375 -215 l0 -80 -120 0 -120
0 0 80 0 80 120 0 120 0 0 -80z m320 0 l0 -80 -80 0 -80 0 0 80 0 80 80 0 80
0 0 -80z m400 0 l0 -80 -120 0 -120 0 0 80 0 80 120 0 120 0 0 -80z m0 -320
l0 -80 -480 0 -480 0 0 80 0 80 480 0 480 0 0 -80z m-880 -320 l0 -80 -120 0
-120 0 0 80 0 80 120 0 120 0 0 -80z m320 0 l0 -80 -80 0 -80 0 0 80 0 80 80
0 80 0 0 -80z m400 0 l0 -80 -120 0 -120 0 0 80 0 80 120 0 120 0 0 -80z m160
-320 l0 -80 -480 0 -480 0 0 80 0 80 480 0 480 0 0 -80z m-880 -320 l0 -80
-120 0 -120 0 0 80 0 80 120 0 120 0 0 -80z m320 0 l0 -80 -80 0 -80 0 0 80 0
80 80 0 80 0 0 -80z m400 0 l0 -80 -120 0 -120 0 0 80 0 80 120 0 120 0 0 -80z
m160 -320 l0 -80 -480 0 -480 0 0 80 0 80 480 0 480 0 0 -80z"/>
<path d="M3785 2135 l-25 -24 0 -296 0 -295 -55 0 c-46 0 -60 -4 -80 -25 -25
-24 -25 -26 -25 -215 0 -189 0 -191 25 -215 20 -21 34 -25 80 -25 l55 0 0 -80
0 -80 -55 0 c-46 0 -60 -4 -80 -25 -25 -24 -25 -26 -25 -215 0 -189 0 -191 25
-215 20 -21 34 -25 80 -25 l55 0 0 -135 c0 -131 1 -137 25 -160 l24 -25 591 0
591 0 24 25 c25 24 25 26 25 215 0 189 0 191 -25 215 -20 21 -34 25 -80 25
l-55 0 0 80 0 80 55 0 c46 0 60 4 80 25 25 24 25 26 25 215 0 189 0 191 -25
215 -20 21 -34 25 -80 25 l-55 0 0 80 0 80 55 0 c46 0 60 4 80 25 l25 24 0
351 0 351 -25 24 -24 25 -591 0 -591 0 -24 -25z m375 -215 l0 -80 -120 0 -120
0 0 80 0 80 120 0 120 0 0 -80z m320 0 l0 -80 -80 0 -80 0 0 80 0 80 80 0 80
0 0 -80z m400 0 l0 -80 -120 0 -120 0 0 80 0 80 120 0 120 0 0 -80z m0 -320
l0 -80 -480 0 -480 0 0 80 0 80 480 0 480 0 0 -80z m-880 -320 l0 -80 -120 0
-120 0 0 80 0 80 120 0 120 0 0 -80z m320 0 l0 -80 -80 0 -80 0 0 80 0 80 80
0 80 0 0 -80z m400 0 l0 -80 -120 0 -120 0 0 80 0 80 120 0 120 0 0 -80z m160
-320 l0 -80 -480 0 -480 0 0 80 0 80 480 0 480 0 0 -80z m-880 -320 l0 -80
-120 0 -120 0 0 80 0 80 120 0 120 0 0 -80z m320 0 l0 -80 -80 0 -80 0 0 80 0
80 80 0 80 0 0 -80z m400 0 l0 -80 -120 0 -120 0 0 80 0 80 120 0 120 0 0 -80z
m160 -320 l0 -80 -480 0 -480 0 0 80 0 80 480 0 480 0 0 -80z"/>
</g>
</svg>
