<?xml version="1.0" standalone="no"?>
<!DOCTYPE svg PUBLIC "-//W3C//DTD SVG 20010904//EN"
 "http://www.w3.org/TR/2001/REC-SVG-20010904/DTD/svg10.dtd">
<svg version="1.0" xmlns="http://www.w3.org/2000/svg"
 width="512.000000pt" height="512.000000pt" viewBox="0 0 512.000000 512.000000"
 preserveAspectRatio="xMidYMid meet">

<g transform="translate(0.000000,512.000000) scale(0.100000,-0.100000)"
fill="#327fd1" stroke="none">
<path d="M2394 5110 c-619 -65 -1147 -489 -1347 -1080 -111 -327 -113 -663 -6
-985 43 -128 140 -327 174 -353 59 -47 144 -18 165 56 9 34 6 45 -41 142 -132
268 -179 488 -158 739 62 765 727 1331 1491 1270 326 -26 613 -157 851 -388
245 -237 388 -541 416 -882 21 -251 -26 -471 -158 -739 -47 -97 -50 -108 -41
-142 21 -74 106 -103 165 -56 34 26 131 225 174 353 185 559 35 1179 -390
1604 -341 341 -819 511 -1295 461z"/>
<path d="M2515 4466 c-42 -19 -57 -50 -63 -128 l-5 -68 -47 0 c-65 0 -158 -19
-200 -40 -51 -26 -115 -93 -142 -148 -22 -44 -23 -58 -23 -242 0 -184 1 -198
23 -242 27 -55 91 -122 142 -148 42 -22 135 -40 202 -40 l48 0 0 -210 0 -210
-69 0 c-60 0 -74 4 -100 26 -19 16 -33 39 -37 62 -10 56 -31 90 -65 108 -44
22 -91 11 -124 -28 -24 -29 -27 -39 -23 -93 2 -35 13 -79 26 -107 27 -55 91
-122 142 -148 42 -21 135 -40 200 -40 l47 0 5 -68 c3 -40 12 -79 22 -95 24
-36 76 -52 120 -37 48 16 68 51 74 132 l5 68 47 0 c65 0 158 19 200 40 51 26
115 93 142 148 22 44 23 58 23 242 0 184 -1 198 -23 242 -27 55 -91 122 -142
148 -42 22 -135 40 -202 40 l-48 0 0 210 0 210 69 0 c60 0 74 -4 100 -26 19
-16 33 -39 37 -62 10 -56 31 -90 65 -108 44 -22 91 -11 124 28 24 29 27 39 23
93 -2 35 -13 79 -26 107 -27 55 -91 122 -142 148 -42 21 -135 40 -200 40 l-47
0 -5 68 c-6 79 -26 116 -70 131 -39 14 -46 13 -83 -3z m-65 -626 l0 -210 -70
0 c-63 0 -73 3 -102 29 l-33 29 0 152 0 152 33 29 c29 26 39 29 102 29 l70 0
0 -210z m392 -459 l33 -29 0 -152 0 -152 -33 -29 c-29 -26 -39 -29 -102 -29
l-70 0 0 210 0 210 70 0 c63 0 73 -3 102 -29z"/>
<path d="M1494 3617 c-2 -7 -3 -56 -2 -108 l3 -94 105 0 105 0 0 105 0 105
-103 3 c-79 2 -104 0 -108 -11z"/>
<path d="M3414 3617 c-2 -7 -3 -56 -2 -108 l3 -94 105 0 105 0 0 105 0 105
-103 3 c-79 2 -104 0 -108 -11z"/>
<path d="M4704 2979 c-144 -17 -246 -82 -474 -304 -152 -148 -159 -153 -362
-274 -133 -79 -214 -121 -225 -118 -10 3 -47 18 -83 34 l-65 28 -530 5 -530 6
-135 47 -135 48 -365 -4 c-343 -3 -369 -5 -440 -26 -159 -47 -280 -123 -413
-258 -99 -101 -114 -151 -62 -207 27 -29 64 -41 101 -32 14 4 70 49 124 101
111 106 170 143 285 182 79 27 83 27 400 31 l320 3 150 -53 150 -52 537 -6
536 -5 44 -30 c123 -87 123 -263 0 -350 l-44 -30 -551 -5 -552 -5 -55 -26
c-78 -37 -125 -81 -160 -153 -55 -112 -40 -211 36 -236 70 -23 127 17 140 100
4 26 17 52 36 71 l30 29 496 0 c273 0 525 5 560 10 269 38 431 303 346 563 -9
27 -14 50 -13 51 2 2 99 60 214 129 191 115 218 134 305 222 234 239 332 305
451 305 121 0 128 22 -135 -400 l-234 -375 -564 -462 -563 -462 -725 -1 c-449
0 -738 -4 -760 -10 -22 -6 -63 -38 -112 -87 l-78 -78 -503 502 c-276 275 -513
506 -526 513 -14 7 -38 9 -60 5 -30 -5 -72 -43 -268 -238 -195 -195 -233 -238
-238 -268 -14 -74 50 -138 124 -124 29 6 69 39 221 191 l186 183 562 -562 562
-562 -184 -185 c-152 -153 -185 -192 -191 -221 -14 -74 50 -138 124 -124 30 5
73 43 268 238 293 294 291 287 144 432 l-71 69 52 53 52 53 731 0 c682 0 733
1 765 18 36 18 1168 941 1207 983 12 13 144 220 293 459 260 416 272 437 267
475 -7 52 -70 111 -170 159 -82 40 -140 48 -243 35z"/>
</g>
</svg>
