<?xml version="1.0" standalone="no"?>
<!DOCTYPE svg PUBLIC "-//W3C//DTD SVG 20010904//EN"
 "http://www.w3.org/TR/2001/REC-SVG-20010904/DTD/svg10.dtd">
<svg version="1.0" xmlns="http://www.w3.org/2000/svg"
 width="512.000000pt" height="512.000000pt" viewBox="0 0 512.000000 512.000000"
 preserveAspectRatio="xMidYMid meet">

<g transform="translate(0.000000,512.000000) scale(0.100000,-0.100000)"
fill="#327fd1" stroke="none">
<path d="M2397 5024 c-360 -65 -648 -362 -708 -728 -17 -108 -7 -282 22 -371
20 -60 23 -96 26 -262 l4 -193 -721 0 -721 0 -24 -25 -25 -24 0 -1421 0 -1421
25 -24 24 -25 642 0 c509 0 640 -3 636 -12 -46 -109 -62 -155 -78 -227 -26
-119 -25 -156 6 -186 l24 -25 1031 0 1031 0 26 26 c23 23 25 31 20 80 -3 31
-3 54 1 52 193 -100 272 -121 457 -121 123 0 151 4 230 27 188 57 339 166 431
312 26 40 51 74 56 74 5 0 20 11 33 25 l25 24 0 1421 0 1421 -25 24 -24 25
-721 0 -721 0 4 193 c3 165 6 202 26 262 28 90 39 264 22 370 -79 490 -543
818 -1034 729z m375 -177 c121 -38 203 -90 300 -187 72 -73 93 -102 131 -181
61 -127 81 -222 75 -358 -16 -323 -240 -592 -555 -666 -106 -26 -292 -17 -391
18 -286 100 -475 350 -490 648 -6 136 14 231 75 358 38 79 59 108 131 181 116
117 238 183 387 210 86 16 251 5 337 -23z m-664 -1445 c143 -85 280 -122 452
-122 240 0 434 77 603 239 l57 55 0 -1327 0 -1327 -62 41 c-68 43 -189 104
-230 114 -24 6 -23 9 46 79 215 218 234 538 45 783 -99 128 -294 223 -459 223
-131 0 -307 -71 -402 -162 -244 -235 -250 -606 -12 -845 69 -69 71 -72 46 -78
-41 -10 -162 -71 -229 -114 l-63 -41 0 1326 0 1326 68 -63 c37 -35 100 -83
140 -107z m-368 -1363 l0 -1270 -32 -40 -31 -39 -634 0 -633 0 0 1310 0 1310
665 0 665 0 0 -1271z m2970 234 c0 -570 -4 -1033 -8 -1027 -5 5 -38 47 -73 94
-35 47 -91 117 -125 155 l-61 71 23 33 c48 71 39 165 -23 227 l-35 36 40 41
c53 56 62 76 62 139 -1 116 -105 203 -215 178 -30 -7 -36 -5 -51 19 -9 14 -28
36 -43 48 l-26 22 178 1 c243 0 227 -17 227 250 0 270 20 250 -255 250 -273 0
-259 15 -252 -275 2 -94 7 -180 11 -192 7 -20 5 -23 -19 -23 -39 0 -103 -39
-126 -76 -18 -29 -22 -31 -54 -24 -110 25 -214 -61 -215 -178 0 -63 9 -83 62
-139 l40 -41 -35 -36 c-35 -35 -57 -87 -57 -136 0 -29 33 -104 49 -114 7 -5
-16 -38 -60 -89 -96 -111 -175 -216 -232 -311 -26 -44 -49 -82 -52 -84 -3 -3
-5 495 -5 1106 l0 1112 665 0 665 0 0 -1037z m-290 287 l0 -90 -95 0 -95 0 0
90 0 90 95 0 95 0 0 -90z m-304 -425 c7 -30 65 -82 99 -91 14 -3 38 -3 53 0
75 19 82 19 82 0 0 -10 -33 -51 -72 -91 l-72 -73 -116 0 -115 0 -72 72 c-40
40 -73 81 -73 91 0 20 7 20 82 1 15 -3 39 -3 53 0 34 9 92 61 99 91 4 16 13
25 26 25 13 0 22 -9 26 -25z m-1456 -151 c212 -48 359 -266 323 -478 -15 -88
-52 -166 -109 -227 -246 -262 -676 -130 -737 227 -36 208 104 421 312 476 83
21 125 22 211 2z m1675 -284 c0 -13 -34 -15 -239 -18 -139 -1 -244 2 -249 7
-27 27 9 31 246 29 207 -3 242 -5 242 -18z m-28 -222 c127 -133 273 -328 332
-445 107 -213 70 -427 -103 -591 -124 -117 -254 -165 -446 -165 -191 0 -323
49 -446 165 -173 164 -210 378 -103 591 59 117 205 312 332 445 l41 42 176 0
176 0 41 -42z m-1596 -513 c208 -36 363 -117 510 -264 112 -114 206 -281 243
-433 l6 -28 -910 0 -910 0 6 28 c62 256 253 496 489 614 169 85 381 116 566
83z"/>
<path d="M2320 4707 c-40 -20 -50 -53 -50 -164 l0 -103 -114 0 c-163 0 -156
13 -156 -276 0 -142 4 -232 11 -247 17 -37 50 -47 159 -47 l100 0 0 -101 c0
-100 8 -132 39 -156 23 -17 479 -17 502 0 31 24 39 56 39 156 l0 101 100 0
c109 0 142 10 159 47 7 15 11 105 11 247 0 288 7 276 -155 276 l-113 0 -4 115
c-5 168 10 159 -276 163 -169 2 -233 -1 -252 -11z m367 -252 c2 -55 5 -110 8
-123 9 -36 61 -52 170 -52 l95 0 0 -125 0 -125 -109 0 c-94 0 -112 -3 -135
-21 -25 -20 -26 -23 -26 -135 l0 -114 -130 0 -130 0 0 114 c0 112 -1 115 -26
135 -23 18 -41 21 -135 21 l-109 0 0 125 0 125 94 0 c101 0 151 12 166 40 6
10 10 65 10 123 0 57 3 107 7 111 4 3 61 5 127 4 l121 -3 2 -100z"/>
<path d="M2073 3230 c-39 -16 -43 -40 -43 -248 0 -267 -19 -246 226 -250 204
-4 225 -1 254 28 19 19 20 34 20 224 0 273 21 250 -237 253 -109 1 -208 -2
-220 -7z m297 -245 l0 -95 -90 0 -90 0 0 95 0 95 90 0 90 0 0 -95z"/>
<path d="M2633 3230 c-39 -16 -43 -40 -43 -249 0 -270 -17 -254 274 -249 245
4 226 -18 226 253 0 272 21 249 -237 252 -109 1 -208 -2 -220 -7z m297 -245
l0 -95 -90 0 -90 0 0 95 0 95 90 0 90 0 0 -95z"/>
<path d="M2073 2670 c-39 -16 -43 -40 -43 -248 0 -270 -23 -247 250 -247 273
0 250 -23 250 250 0 272 21 249 -237 252 -109 1 -208 -2 -220 -7z m297 -245
l0 -95 -90 0 -90 0 0 95 0 95 90 0 90 0 0 -95z"/>
<path d="M2633 2670 c-39 -16 -43 -40 -43 -248 0 -270 -23 -247 250 -247 273
0 250 -23 250 250 0 272 21 249 -237 252 -109 1 -208 -2 -220 -7z m297 -245
l0 -95 -90 0 -90 0 0 95 0 95 90 0 90 0 0 -95z"/>
<path d="M565 2785 c-25 -24 -25 -25 -25 -225 0 -270 -20 -250 252 -250 219 1
228 3 248 54 13 36 13 356 0 392 -20 51 -29 53 -248 54 -202 0 -203 0 -227
-25z m325 -225 l0 -90 -95 0 -95 0 0 90 0 90 95 0 95 0 0 -90z"/>
<path d="M1125 2785 c-25 -24 -25 -25 -25 -225 0 -270 -20 -250 250 -250 112
0 209 4 220 10 32 17 40 67 40 240 0 173 -8 223 -40 240 -11 6 -108 10 -220
10 -200 0 -201 0 -225 -25z m325 -225 l0 -90 -95 0 -95 0 0 90 0 90 95 0 95 0
0 -90z"/>
<path d="M565 2225 c-25 -24 -25 -25 -25 -225 0 -270 -20 -250 250 -250 112 0
209 4 220 10 10 5 23 24 29 41 14 41 15 358 1 395 -20 51 -29 53 -248 54 -202
0 -203 0 -227 -25z m325 -225 l0 -90 -95 0 -95 0 0 90 0 90 95 0 95 0 0 -90z"/>
<path d="M1125 2225 c-25 -24 -25 -25 -25 -225 0 -270 -20 -250 250 -250 112
0 209 4 220 10 10 5 23 24 29 41 14 41 15 358 1 395 -20 51 -29 53 -248 54
-202 0 -203 0 -227 -25z m325 -225 l0 -90 -95 0 -95 0 0 90 0 90 95 0 95 0 0
-90z"/>
<path d="M565 1665 c-25 -24 -25 -25 -25 -223 0 -186 1 -201 21 -226 l20 -26
210 0 c194 0 210 1 228 19 29 29 33 68 29 259 -3 164 -4 171 -27 196 l-24 26
-204 0 c-203 0 -204 0 -228 -25z m325 -225 l0 -90 -95 0 -95 0 0 90 0 90 95 0
95 0 0 -90z"/>
<path d="M1125 1665 c-25 -24 -25 -25 -25 -225 0 -270 -20 -250 250 -250 112
0 209 4 220 10 10 5 23 24 29 41 14 41 15 358 1 395 -20 51 -29 53 -248 54
-202 0 -203 0 -227 -25z m325 -225 l0 -90 -95 0 -95 0 0 90 0 90 95 0 95 0 0
-90z"/>
<path d="M3547 2798 c-30 -24 -37 -68 -37 -237 0 -174 8 -224 40 -241 11 -6
108 -10 220 -10 270 0 250 -20 250 250 0 270 20 250 -253 250 -147 0 -208 -3
-220 -12z m313 -238 l0 -90 -95 0 -95 0 0 90 0 90 95 0 95 0 0 -90z"/>
<path d="M4032 1297 c-12 -13 -22 -32 -22 -43 0 -13 -14 -26 -42 -39 -50 -25
-105 -91 -114 -140 -24 -130 65 -229 231 -260 62 -11 95 -32 95 -60 0 -31 -26
-45 -87 -45 -57 0 -88 18 -107 64 -27 64 -103 70 -142 11 -15 -22 -15 -31 -3
-72 15 -56 78 -124 133 -144 22 -8 36 -20 36 -30 0 -9 9 -28 21 -43 37 -47
120 -28 134 32 5 21 20 33 66 55 75 36 109 87 109 167 0 112 -63 181 -198 215
-96 24 -132 41 -132 63 0 25 29 50 60 53 55 5 70 -1 98 -40 35 -51 71 -68 111
-51 33 13 56 58 47 93 -10 43 -66 107 -111 129 -32 16 -46 29 -50 50 -13 57
-92 78 -133 35z"/>
</g>
</svg>
