<?xml version="1.0" standalone="no"?>
<!DOCTYPE svg PUBLIC "-//W3C//DTD SVG 20010904//EN"
 "http://www.w3.org/TR/2001/REC-SVG-20010904/DTD/svg10.dtd">
<svg version="1.0" xmlns="http://www.w3.org/2000/svg"
 viewBox="0 0 357.000000 187.000000"
 preserveAspectRatio="xMidYMid meet">
<rect width="100%" height="100%" fill="white" />

<g transform="translate(0.000000,187.000000) scale(0.100000,-0.100000)"
fill="#3380D2" stroke="none">
<path d="M0 935 l0 -935 1785 0 1785 0 0 935 0 935 -1785 0 -1785 0 0 -935z
m772 251 l73 -43 2 -164 3 -164 -132 -75 c-73 -41 -137 -75 -143 -75 -6 0 -70
34 -143 75 l-132 75 0 165 0 165 137 77 137 77 63 -35 c34 -19 95 -54 135 -78z
m678 -91 c0 -52 1 -55 19 -45 34 18 80 12 106 -15 23 -22 25 -31 25 -125 l0
-100 -35 0 -34 0 -3 86 c-2 70 -6 89 -20 98 -13 8 -23 8 -35 0 -14 -9 -19 -30
-23 -95 l-5 -84 -32 -3 -33 -3 0 170 0 171 35 0 35 0 0 -55z m1220 34 c15 -27
-5 -51 -39 -47 -19 2 -27 10 -29 27 -6 41 48 57 68 20z m-1423 -18 c54 -25 77
-68 77 -144 -1 -103 -57 -149 -182 -151 l-77 -1 -3 145 c-1 79 0 150 2 157 8
21 133 16 183 -6z m1078 -68 c40 -136 42 -140 48 -123 3 8 20 59 37 113 l32
97 49 0 50 0 -3 -157 -3 -158 -32 -3 -33 -3 -1 108 -1 108 -33 -98 c-18 -55
-37 -103 -43 -109 -5 -5 -20 -8 -33 -6 -21 3 -29 17 -56 98 l-31 95 -1 -98 -1
-98 -32 3 -33 3 -3 158 -3 157 50 0 50 0 26 -87z m485 43 c0 -21 6 -25 33 -28
27 -2 33 -8 35 -30 3 -26 1 -28 -33 -28 l-36 0 3 -62 c3 -63 3 -63 36 -66 26
-3 32 -8 32 -27 0 -26 -17 -35 -66 -35 -57 0 -74 27 -74 115 0 60 -3 75 -15
75 -20 0 -19 36 0 44 9 3 21 19 26 36 8 22 17 30 35 30 19 0 24 -5 24 -24z
m-990 -41 c35 -18 42 -49 38 -155 -3 -69 -5 -75 -26 -78 -13 -2 -24 3 -28 12
-5 14 -8 14 -27 1 -51 -36 -137 1 -137 58 0 45 35 75 95 82 30 4 55 11 55 16
0 18 -34 26 -68 17 -37 -10 -52 -1 -52 34 0 28 103 37 150 13z m157 4 c8 -8
17 -8 31 0 35 19 81 13 107 -14 23 -22 25 -31 25 -125 l0 -100 -35 0 -35 0 0
79 c0 94 -5 111 -34 111 -38 0 -46 -19 -46 -107 l0 -83 -35 0 -35 0 0 125 c0
124 0 125 23 125 13 0 28 -5 34 -11z m693 -114 l0 -125 -35 0 -35 0 0 125 0
125 35 0 35 0 0 -125z m306 110 c5 -13 8 -13 27 0 26 18 77 20 77 3 -1 -36
-14 -58 -34 -58 -44 0 -55 -20 -58 -100 l-3 -75 -32 -3 -33 -3 0 125 0 126 25
0 c14 0 28 -7 31 -15z m298 -6 c25 -20 26 -24 26 -125 0 -96 -1 -104 -20 -104
-10 0 -23 7 -28 16 -9 16 -11 16 -33 0 -57 -39 -129 -7 -129 59 0 48 28 73 90
81 30 4 50 12 50 19 0 19 -25 25 -62 14 -27 -7 -35 -6 -45 8 -18 24 -16 32 10
43 42 17 112 11 141 -11z"/>
<path d="M514 1116 c-9 -24 12 -44 28 -28 10 10 8 16 -5 29 -15 15 -17 15 -23
-1z"/>
<path d="M611 1121 c-15 -10 -8 -41 9 -41 15 0 25 29 14 40 -5 5 -15 5 -23 1z"/>
<path d="M430 1115 c0 -5 14 -24 30 -42 29 -31 30 -34 30 -137 0 -88 3 -106
15 -106 12 0 15 14 15 70 0 40 4 70 10 70 6 0 10 -30 10 -70 0 -40 4 -70 10
-70 6 0 10 43 10 110 0 91 3 110 15 110 12 0 15 -19 15 -110 0 -67 4 -110 10
-110 6 0 10 30 10 70 0 40 4 70 10 70 6 0 10 -30 10 -70 0 -40 4 -70 10 -70 6
0 10 42 10 105 l0 106 35 30 c19 17 35 36 35 42 0 6 -15 -3 -33 -21 -32 -31
-36 -32 -117 -32 -84 0 -85 0 -112 32 -15 18 -28 29 -28 23z"/>
<path d="M1140 976 l0 -96 34 0 c46 0 76 37 76 95 0 53 -23 82 -72 91 l-38 6
0 -96z"/>
<path d="M1727 913 c-17 -16 -6 -43 16 -43 25 0 47 17 47 37 0 13 -51 19 -63
6z"/>
<path d="M3170 905 c-17 -21 -1 -38 31 -33 16 2 25 11 27 26 3 18 -1 22 -21
22 -14 0 -30 -7 -37 -15z"/>
</g>
</svg>
