<?xml version="1.0" encoding="UTF-8"?>
<!DOCTYPE svg PUBLIC "-//W3C//DTD SVG 1.1//EN" "http://www.w3.org/Graphics/SVG/1.1/DTD/svg11.dtd">
<svg xmlns="http://www.w3.org/2000/svg" version="1.1" width="512px" height="512px" style="shape-rendering:geometricPrecision; text-rendering:geometricPrecision; image-rendering:optimizeQuality; fill-rule:evenodd; clip-rule:evenodd" xmlns:xlink="http://www.w3.org/1999/xlink">
<g><path style="opacity:0.95" fill="#327fd1" d="M 158.5,-0.5 C 260.167,-0.5 361.833,-0.5 463.5,-0.5C 469.874,2.39059 473.374,7.39059 474,14.5C 474.667,85.1667 474.667,155.833 474,226.5C 471.77,233.463 467.27,235.296 460.5,232C 459.874,231.25 459.374,230.416 459,229.5C 458.832,157.93 458.332,86.4298 457.5,15C 359.833,14.3333 262.167,14.3333 164.5,15C 163.522,21.4102 163.189,27.9102 163.5,34.5C 251.834,34.3333 340.167,34.5 428.5,35C 435.053,37.6008 438.553,42.4342 439,49.5C 439.5,172.166 439.667,294.833 439.5,417.5C 445.833,417.5 452.167,417.5 458.5,417.5C 458.333,363.832 458.5,310.166 459,256.5C 466.017,250.369 471.017,251.703 474,260.5C 474.667,312.833 474.667,365.167 474,417.5C 473.614,424.209 470.447,429.042 464.5,432C 456.251,433.406 447.917,433.906 439.5,433.5C 439.787,441.886 439.287,450.219 438,458.5C 435.673,463.423 431.84,466.59 426.5,468C 348.498,468.167 270.498,468.667 192.5,469.5C 178.948,492.108 159.281,506.108 133.5,511.5C 124.833,511.5 116.167,511.5 107.5,511.5C 63.7072,501.46 40.0406,473.96 36.5,429C 37.9812,396.026 52.9812,371.359 81.5,355C 91.2877,350.137 101.621,347.303 112.5,346.5C 112.333,284.499 112.5,222.499 113,160.5C 114.465,154.347 118.298,152.18 124.5,154C 126,154.833 127.167,156 128,157.5C 128.5,220.499 128.667,283.499 128.5,346.5C 159.724,350.223 182.224,366.223 196,394.5C 204.094,413.313 205.26,432.48 199.5,452C 274.166,452.5 348.833,452.667 423.5,452.5C 423.667,318.5 423.5,184.5 423,50.5C 325.237,49.3348 227.403,49.1682 129.5,50C 128.671,76.7612 128.171,103.595 128,130.5C 120.983,136.631 115.983,135.297 113,126.5C 112.044,99.1259 112.377,71.7926 114,44.5C 115.833,40 119,36.8333 123.5,35C 131.493,34.5003 139.493,34.3336 147.5,34.5C 147.17,26.1067 147.67,17.7733 149,9.5C 151.022,4.98004 154.189,1.6467 158.5,-0.5 Z M 304.5,112.5 C 306.601,115.797 307.935,119.463 308.5,123.5C 305.813,123.664 303.146,123.497 300.5,123C 302.326,119.688 303.66,116.188 304.5,112.5 Z M 313.5,318.5 C 330.62,316.894 344.62,322.728 355.5,336C 332.5,336.667 309.5,336.667 286.5,336C 293.566,327.087 302.566,321.253 313.5,318.5 Z M 274.5,353.5 C 305.331,352.336 336.331,352.169 367.5,353C 363.5,358 363.5,363 367.5,368C 336.5,368.667 305.5,368.667 274.5,368C 278.478,363.054 278.478,358.22 274.5,353.5 Z M 115.5,361.5 C 147.39,361.909 169.89,376.576 183,405.5C 192.332,437.17 184.165,463.337 158.5,484C 130.387,501.024 103.053,499.691 76.5,480C 54.0429,458.341 47.8762,432.841 58,403.5C 69.475,378.844 88.6417,364.844 115.5,361.5 Z M 286.5,385.5 C 309.33,384.337 332.33,384.17 355.5,385C 336.535,405.598 315.535,407.931 292.5,392C 290.266,389.937 288.266,387.771 286.5,385.5 Z M 149.5,404.5 C 155.141,404.815 156.975,407.481 155,412.5C 141.805,426.029 128.305,439.196 114.5,452C 110.634,454.12 106.967,453.786 103.5,451C 97.3333,444.833 91.1667,438.667 85,432.5C 84.177,424.995 87.0104,423.162 93.5,427C 96.8333,430.333 100.167,433.667 103.5,437C 107.039,438.504 110.705,438.837 114.5,438C 126.365,426.966 138.032,415.8 149.5,404.5 Z"/></g>
<g><path style="opacity:0.932" fill="#327fd1" d="M 163.5,83.5 C 168.957,82.974 172.457,85.3073 174,90.5C 174.5,105.496 174.667,120.496 174.5,135.5C 178.182,135.335 181.848,135.501 185.5,136C 193.411,139.555 194.411,144.555 188.5,151C 179.833,151.667 171.167,151.667 162.5,151C 160.667,150.5 159.5,149.333 159,147.5C 158.333,127.5 158.333,107.5 159,87.5C 160.397,85.9297 161.897,84.5964 163.5,83.5 Z"/></g>
<g><path style="opacity:0.926" fill="#327fd1" d="M 229.5,83.5 C 250.243,82.7509 263.077,92.4176 268,112.5C 269.468,132.017 260.968,144.851 242.5,151C 221.45,154.065 207.617,145.565 201,125.5C 198.521,103.177 208.021,89.1767 229.5,83.5 Z M 230.5,99.5 C 244.977,99.809 252.143,107.142 252,121.5C 246.906,134.869 237.74,138.702 224.5,133C 215.758,125.432 214.258,116.598 220,106.5C 223.154,103.488 226.654,101.155 230.5,99.5 Z"/></g>
<g><path style="opacity:0.93" fill="#327fd1" d="M 302.5,83.5 C 308.264,82.7975 312.097,85.1309 314,90.5C 320.333,107.167 326.667,123.833 333,140.5C 333.949,149.217 330.116,152.717 321.5,151C 318.601,148.038 316.601,144.538 315.5,140.5C 308.5,139.167 301.5,139.167 294.5,140.5C 293.336,144.507 291.336,148.007 288.5,151C 279.211,153.29 275.378,149.79 277,140.5C 283.47,122.756 290.137,105.089 297,87.5C 298.5,85.5313 300.333,84.198 302.5,83.5 Z M 304.5,112.5 C 303.66,116.188 302.326,119.688 300.5,123C 303.146,123.497 305.813,123.664 308.5,123.5C 307.935,119.463 306.601,115.797 304.5,112.5 Z"/></g>
<g><path style="opacity:0.937" fill="#327fd1" d="M 346.5,83.5 C 349.972,83.1262 352.972,84.1262 355.5,86.5C 362.862,96.6955 370.028,107.029 377,117.5C 377.079,107.76 377.745,98.093 379,88.5C 383.667,83.1667 388.333,83.1667 393,88.5C 393.667,107.833 393.667,127.167 393,146.5C 389.911,151.305 385.744,152.472 380.5,150C 372.612,139.778 365.112,129.278 358,118.5C 357.667,127.833 357.333,137.167 357,146.5C 354.565,151.224 350.731,152.724 345.5,151C 344.584,150.626 343.75,150.126 343,149.5C 341.357,129.256 341.024,108.923 342,88.5C 343.025,86.313 344.525,84.6464 346.5,83.5 Z"/></g>
<g><path style="opacity:0.932" fill="#327fd1" d="M 162.5,168.5 C 220.168,168.333 277.834,168.5 335.5,169C 340.535,172.013 341.702,176.18 339,181.5C 337.829,182.893 336.329,183.727 334.5,184C 277.5,184.667 220.5,184.667 163.5,184C 158.776,181.565 157.276,177.731 159,172.5C 159.69,170.65 160.856,169.316 162.5,168.5 Z"/></g>
<g><path style="opacity:0.921" fill="#327fd1" d="M 367.5,168.5 C 374.413,166.918 378.58,169.584 380,176.5C 386.228,177.899 390.395,181.565 392.5,187.5C 391.282,194.282 387.282,196.782 380.5,195C 377.264,192.365 373.597,191.365 369.5,192C 367.473,193.396 367.14,195.062 368.5,197C 375.039,199.621 381.373,202.621 387.5,206C 394.541,214.851 395.374,224.351 390,234.5C 387.214,237.888 383.881,240.554 380,242.5C 378.567,250.427 374.067,252.927 366.5,250C 364.647,247.96 363.314,245.627 362.5,243C 359.382,241.941 356.382,240.608 353.5,239C 348.167,234.333 348.167,229.667 353.5,225C 356.167,224.333 358.833,224.333 361.5,225C 366.929,228.435 372.096,228.269 377,224.5C 377.758,222.231 377.591,220.064 376.5,218C 368.016,215.51 360.516,211.343 354,205.5C 348.495,193.52 351.329,184.187 362.5,177.5C 363.402,174.026 365.068,171.026 367.5,168.5 Z"/></g>
<g><path style="opacity:0.932" fill="#327fd1" d="M 163.5,201.5 C 220.501,201.333 277.501,201.5 334.5,202C 341.663,205.994 342.33,210.994 336.5,217C 278.5,217.667 220.5,217.667 162.5,217C 159.484,215.471 158.151,212.971 158.5,209.5C 158.546,205.793 160.213,203.127 163.5,201.5 Z"/></g>
<g><path style="opacity:0.931" fill="#327fd1" d="M 162.5,235.5 C 220.501,235.333 278.501,235.5 336.5,236C 340.613,239.509 341.446,243.676 339,248.5C 337.829,249.893 336.329,250.727 334.5,251C 277.5,251.667 220.5,251.667 163.5,251C 158.776,248.565 157.276,244.731 159,239.5C 159.69,237.65 160.856,236.316 162.5,235.5 Z"/></g>
<g><path style="opacity:0.933" fill="#327fd1" d="M 165.5,268.5 C 237.167,268.333 308.834,268.5 380.5,269C 387.987,273.606 388.321,278.606 381.5,284C 309.167,284.667 236.833,284.667 164.5,284C 161.484,282.471 160.151,279.971 160.5,276.5C 160.546,272.793 162.213,270.127 165.5,268.5 Z"/></g>
<g><path style="opacity:0.927" fill="#327fd1" d="M 164.5,302.5 C 193.835,302.333 223.169,302.5 252.5,303C 259.401,308.42 259.067,313.42 251.5,318C 222.833,318.667 194.167,318.667 165.5,318C 160.776,315.565 159.276,311.731 161,306.5C 161.69,304.65 162.856,303.316 164.5,302.5 Z"/></g>
<g><path style="opacity:0.937" fill="#327fd1" d="M 311.5,302.5 C 339.586,299.873 360.253,310.873 373.5,335.5C 378.544,336.169 383.544,337.002 388.5,338C 390.667,338.833 392.167,340.333 393,342.5C 393.667,345.5 393.667,348.5 393,351.5C 390.112,354.38 387.279,357.38 384.5,360.5C 387.279,363.62 390.112,366.62 393,369.5C 395.22,376.437 393.053,381.27 386.5,384C 382.129,384.172 377.796,384.672 373.5,385.5C 356.696,414.609 332.029,424.443 299.5,415C 284.952,409.118 274.285,399.118 267.5,385C 262.084,384.841 256.75,384.174 251.5,383C 246.467,379.1 245.3,374.267 248,368.5C 250.971,365.94 253.804,363.273 256.5,360.5C 252.841,357.673 249.674,354.34 247,350.5C 245.534,345.265 247.034,341.099 251.5,338C 256.769,336.894 262.103,336.227 267.5,336C 276.869,317.788 291.536,306.622 311.5,302.5 Z M 313.5,318.5 C 302.566,321.253 293.566,327.087 286.5,336C 309.5,336.667 332.5,336.667 355.5,336C 344.62,322.728 330.62,316.894 313.5,318.5 Z M 274.5,353.5 C 278.478,358.22 278.478,363.054 274.5,368C 305.5,368.667 336.5,368.667 367.5,368C 363.5,363 363.5,358 367.5,353C 336.331,352.169 305.331,352.336 274.5,353.5 Z M 286.5,385.5 C 288.266,387.771 290.266,389.937 292.5,392C 315.535,407.931 336.535,405.598 355.5,385C 332.33,384.17 309.33,384.337 286.5,385.5 Z"/></g>
<g><path style="opacity:0.925" fill="#327fd1" d="M 147.5,388.5 C 162.239,387.908 170.573,394.908 172.5,409.5C 172.068,414.24 170.568,418.574 168,422.5C 153.471,437.363 138.638,451.863 123.5,466C 113.106,470.99 103.106,470.324 93.5,464C 86.3333,456.833 79.1667,449.667 72,442.5C 67.3333,433.833 67.3333,425.167 72,416.5C 85.844,405.045 98.5107,406.378 110,420.5C 118.833,411.667 127.667,402.833 136.5,394C 139.99,391.588 143.657,389.755 147.5,388.5 Z M 149.5,404.5 C 138.032,415.8 126.365,426.966 114.5,438C 110.705,438.837 107.039,438.504 103.5,437C 100.167,433.667 96.8333,430.333 93.5,427C 87.0104,423.162 84.177,424.995 85,432.5C 91.1667,438.667 97.3333,444.833 103.5,451C 106.967,453.786 110.634,454.12 114.5,452C 128.305,439.196 141.805,426.029 155,412.5C 156.975,407.481 155.141,404.815 149.5,404.5 Z"/></g>
</svg>
