<?xml version="1.0" encoding="UTF-8"?>
<!DOCTYPE svg PUBLIC "-//W3C//DTD SVG 1.1//EN" "http://www.w3.org/Graphics/SVG/1.1/DTD/svg11.dtd">
<svg xmlns="http://www.w3.org/2000/svg" version="1.1" width="512px" height="512px" style="shape-rendering:geometricPrecision; text-rendering:geometricPrecision; image-rendering:optimizeQuality; fill-rule:evenodd; clip-rule:evenodd" xmlns:xlink="http://www.w3.org/1999/xlink">
<g><path style="opacity:0.953" fill="#327fd1" d="M 334.5,15.5 C 346.774,13.1951 356.274,17.1951 363,27.5C 390.726,88.6195 418.726,149.619 447,210.5C 457.423,211.321 467.923,211.821 478.5,212C 485.519,214.351 490.686,218.851 494,225.5C 495.658,309.777 495.992,394.11 495,478.5C 492.167,486.667 486.667,492.167 478.5,495C 329.833,495.667 181.167,495.667 32.5,495C 24.3333,492.167 18.8333,486.667 16,478.5C 15.3333,395.167 15.3333,311.833 16,228.5C 20.4411,217.111 28.7744,211.111 41,210.5C 67.6006,163.575 94.6006,116.908 122,70.5C 129.775,63.6886 138.609,61.8553 148.5,65C 170.578,77.1207 192.411,89.6207 214,102.5C 241.11,89.193 268.61,76.8597 296.5,65.5C 297.833,65.6667 299.167,65.8333 300.5,66C 304.689,72.0349 309.356,77.7015 314.5,83C 325.497,90.5568 337.163,91.8902 349.5,87C 356.745,85.3762 361.245,88.2096 363,95.5C 380.5,133.833 398,172.167 415.5,210.5C 419.795,211.661 424.129,211.828 428.5,211C 401.167,152 373.833,93 346.5,34C 343.634,32.5432 340.634,32.2099 337.5,33C 299.918,50.5269 262.251,67.8602 224.5,85C 214.399,88.5425 209.899,85.0425 211,74.5C 211.465,73.0692 212.299,71.9025 213.5,71C 253.924,52.4509 294.257,33.9509 334.5,15.5 Z M 137.5,80.5 C 139.989,80.2978 142.323,80.7978 144.5,82C 219.337,125.253 294.337,168.253 369.5,211C 361.833,211.667 354.167,211.667 346.5,211C 291.831,179.145 236.831,147.979 181.5,117.5C 179.701,117.577 178.034,118.077 176.5,119C 163.994,138.395 147.327,143.395 126.5,134C 123.366,133.21 120.366,133.543 117.5,135C 102.621,159.922 88.121,185.088 74,210.5C 69.5868,211.632 65.0868,211.799 60.5,211C 84.4597,169.582 108.293,128.082 132,86.5C 133.36,83.9774 135.193,81.9774 137.5,80.5 Z M 393.5,204.5 C 339.888,174.024 286.221,143.524 232.5,113C 252.214,103.647 272.047,94.4807 292,85.5C 299.064,93.5519 307.564,99.7186 317.5,104C 327.874,106.951 338.207,107.618 348.5,106C 363.914,138.661 378.914,171.494 393.5,204.5 Z M 183.5,137.5 C 226.473,161.988 269.473,186.488 312.5,211C 239.5,211.667 166.5,211.667 93.5,211C 104.5,192 115.5,173 126.5,154C 132.222,154.942 138.055,155.442 144,155.5C 160.151,155.838 173.318,149.838 183.5,137.5 Z M 36.5,228.5 C 183.247,228.003 329.914,228.503 476.5,230C 477.717,231.648 478.55,233.481 479,235.5C 479.667,314.167 479.667,392.833 479,471.5C 478.5,476 476,478.5 471.5,479C 327.5,479.667 183.5,479.667 39.5,479C 35,478.5 32.5,476 32,471.5C 31.3333,392.833 31.3333,314.167 32,235.5C 32.5303,232.415 34.0303,230.082 36.5,228.5 Z M 245.5,298.5 C 270.924,295.898 290.424,305.231 304,326.5C 316.578,354.34 311.411,378.173 288.5,398C 264.553,413.455 241.22,412.455 218.5,395C 200.165,376.484 195.665,354.984 205,330.5C 213.676,313.65 227.176,302.984 245.5,298.5 Z"/></g>
<g><path style="opacity:0.961" fill="#327fd1" d="M 99.5,243.5 C 204.248,243.004 308.915,243.504 413.5,245C 415.622,252.049 417.456,259.216 419,266.5C 427.193,283.192 440.693,291.692 459.5,292C 461.333,292.5 462.5,293.667 463,295.5C 463.988,334.918 463.654,374.251 462,413.5C 454.976,415.697 447.809,417.53 440.5,419C 423.809,427.191 415.309,440.691 415,459.5C 414.5,461.333 413.333,462.5 411.5,463C 369.167,463.667 326.833,463.667 284.5,463C 279.167,458 279.167,453 284.5,448C 322.832,447.5 361.165,447.333 399.5,447.5C 404.5,420.5 420.5,404.5 447.5,399.5C 447.5,368.833 447.5,338.167 447.5,307.5C 421.416,302.751 405.416,287.417 399.5,261.5C 303.5,260.167 207.5,260.167 111.5,261.5C 105.584,287.417 89.5837,302.751 63.5,307.5C 63.5,338.167 63.5,368.833 63.5,399.5C 90.5,404.5 106.5,420.5 111.5,447.5C 160.834,447.333 210.168,447.5 259.5,448C 262.516,449.529 263.849,452.029 263.5,455.5C 263.849,458.971 262.516,461.471 259.5,463C 206.167,463.667 152.833,463.667 99.5,463C 97.6667,462.5 96.5,461.333 96,459.5C 95.6907,440.691 87.1907,427.191 70.5,419C 63.1911,417.53 56.0245,415.697 49,413.5C 47.3456,374.251 47.0122,334.918 48,295.5C 48.5,293.667 49.6667,292.5 51.5,292C 78.9979,289.835 93.8313,275.002 96,247.5C 96.6897,245.65 97.8564,244.316 99.5,243.5 Z M 245.5,298.5 C 227.176,302.984 213.676,313.65 205,330.5C 195.665,354.984 200.165,376.484 218.5,395C 241.22,412.455 264.553,413.455 288.5,398C 311.411,378.173 316.578,354.34 304,326.5C 290.424,305.231 270.924,295.898 245.5,298.5 Z"/></g>
<g><path style="opacity:0.932" fill="#327fd1" d="M 243.5,281.5 C 280.533,278.258 307.033,293.258 323,326.5C 334.264,361.295 325.764,390.128 297.5,413C 267.573,431.161 238.24,430.161 209.5,410C 184.427,386.876 177.26,359.043 188,326.5C 198.813,301.864 217.313,286.864 243.5,281.5 Z M 245.5,298.5 C 227.176,302.984 213.676,313.65 205,330.5C 195.665,354.984 200.165,376.484 218.5,395C 241.22,412.455 264.553,413.455 288.5,398C 311.411,378.173 316.578,354.34 304,326.5C 290.424,305.231 270.924,295.898 245.5,298.5 Z"/></g>
</svg>
