<?xml version="1.0" standalone="no"?>
<!DOCTYPE svg PUBLIC "-//W3C//DTD SVG 20010904//EN"
 "http://www.w3.org/TR/2001/REC-SVG-20010904/DTD/svg10.dtd">
<svg version="1.0" xmlns="http://www.w3.org/2000/svg"
 width="512.000000pt" height="512.000000pt" viewBox="0 0 512.000000 512.000000"
 preserveAspectRatio="xMidYMid meet">

<g transform="translate(0.000000,512.000000) scale(0.100000,-0.100000)"
fill="#327fd1" stroke="none">
<path d="M2945 4943 c-27 -8 -68 -27 -90 -42 -117 -80 -1703 -1236 -1717
-1253 -37 -42 -25 -67 110 -236 122 -154 151 -182 191 -182 10 0 49 23 87 50
l69 50 5 -246 c5 -243 5 -246 29 -265 30 -24 72 -24 102 0 l24 19 5 307 5 308
638 464 637 464 638 -464 637 -463 5 -788 5 -788 24 -19 c30 -24 72 -24 102 0
l24 19 5 726 5 726 69 -50 c38 -27 77 -50 87 -50 40 0 69 28 192 182 130 164
144 192 115 231 -7 9 -114 90 -238 180 l-225 164 -5 467 -5 468 -24 19 c-22
18 -44 19 -373 19 l-349 0 -24 -25 c-25 -24 -25 -27 -25 -190 0 -91 -2 -165
-5 -165 -3 0 -103 71 -223 158 -265 192 -256 187 -322 206 -66 20 -119 19
-185 -1z m150 -153 c23 -9 1617 -1161 1654 -1196 12 -11 4 -25 -49 -91 -34
-43 -66 -77 -71 -75 -5 1 -357 255 -782 565 -671 489 -777 562 -807 562 -30 0
-136 -73 -807 -562 -425 -310 -777 -564 -782 -565 -5 -2 -37 32 -71 75 -53 66
-61 80 -49 91 31 29 1633 1188 1653 1196 29 12 80 12 111 0z m1225 -336 l0
-346 -54 39 c-29 21 -137 99 -239 173 l-187 135 0 173 0 172 240 0 240 0 0
-346z"/>
<path d="M2873 3666 c-300 -58 -553 -246 -687 -512 -46 -93 -73 -175 -91 -283
-14 -81 -14 -93 -1 -119 17 -33 34 -42 75 -42 44 0 68 35 80 120 89 580 739
878 1224 560 425 -277 490 -866 137 -1226 -72 -73 -166 -139 -251 -177 -88
-39 -113 -94 -64 -142 34 -35 72 -32 158 11 294 148 481 397 533 713 49 302
-45 598 -261 817 -135 137 -273 218 -454 265 -99 27 -298 34 -398 15z"/>
<path d="M2985 3335 c-21 -20 -25 -34 -25 -80 0 -44 -4 -57 -17 -61 -96 -30
-153 -74 -190 -147 -52 -104 -38 -225 37 -310 59 -67 112 -89 237 -97 100 -6
105 -8 136 -38 27 -28 32 -40 32 -82 0 -43 -5 -54 -33 -82 l-32 -33 -186 -5
c-180 -5 -186 -6 -205 -29 -26 -32 -24 -77 6 -106 22 -23 32 -25 120 -25 l95
0 0 -55 c0 -67 29 -105 80 -105 19 0 40 9 55 25 21 20 25 34 25 80 0 44 4 57
18 61 95 30 152 74 189 147 52 104 38 225 -37 310 -59 67 -112 89 -237 97
-100 6 -105 8 -136 38 -27 28 -32 40 -32 82 0 43 5 54 33 82 l32 33 186 5
c180 5 186 6 205 29 26 32 24 77 -6 106 -22 23 -32 25 -120 25 l-95 0 0 55 c0
67 -29 105 -80 105 -19 0 -40 -9 -55 -25z"/>
<path d="M185 2855 c-16 -15 -25 -36 -25 -55 0 -19 9 -40 25 -55 l24 -25 351
0 351 0 24 -25 25 -24 0 -911 0 -911 -25 -24 -24 -25 -351 0 -351 0 -24 -25
c-33 -32 -33 -78 0 -110 l24 -25 352 0 c247 0 364 4 393 12 85 25 166 136 166
227 l0 31 658 -329 c362 -181 696 -343 743 -359 233 -82 490 -80 725 6 62 23
1058 540 1483 770 104 56 154 105 193 189 56 120 47 247 -28 360 -67 103 -205
171 -323 160 -31 -3 -314 -64 -630 -136 -315 -72 -577 -129 -581 -126 -4 3
-11 21 -15 42 -9 48 -39 108 -81 159 -18 23 -160 142 -316 265 -155 123 -386
306 -513 406 -249 198 -343 254 -490 295 -74 20 -107 22 -452 26 -330 3 -373
5 -373 19 0 76 -89 188 -166 211 -29 8 -146 12 -393 12 l-352 0 -24 -25z
m1720 -398 c136 -39 202 -83 700 -478 264 -209 495 -395 514 -412 144 -136 85
-377 -106 -433 -100 -29 -113 -24 -659 276 -286 156 -504 270 -519 270 -59 0
-97 -83 -57 -128 9 -11 240 -142 513 -291 432 -236 506 -274 570 -287 120 -25
237 2 336 77 57 43 127 139 138 189 4 19 14 32 28 35 194 47 1215 275 1230
275 104 0 206 -99 207 -200 0 -110 -45 -161 -235 -259 -77 -41 -403 -212 -725
-382 -394 -207 -615 -318 -676 -338 -185 -62 -379 -64 -565 -5 -52 16 -351
160 -781 375 l-698 349 0 696 0 695 363 -3 c301 -4 372 -7 422 -21z"/>
</g>
</svg>
