<?xml version="1.0" standalone="no"?>
<!DOCTYPE svg PUBLIC "-//W3C//DTD SVG 20010904//EN"
 "http://www.w3.org/TR/2001/REC-SVG-20010904/DTD/svg10.dtd">
<svg version="1.0" xmlns="http://www.w3.org/2000/svg"
 viewBox="0 0 200.000000 187.000000"
 preserveAspectRatio="xMidYMid meet">
<g >
<path d="M100 20c-44.1 0-80 35.9-80 80s35.9 80 80 80 80-35.9 80-80-35.9-80-80-80zm0 153c-40.2 0-73-32.8-73-73s32.8-73 73-73 73 32.8 73 73-32.8 73-73 73zm25.7-83.4h-23.8V47.9c0-1.6-1.3-3-2.9-3.4s-3.3.5-4 1.9l-27.6 59c-.5 1-.5 2.4.2 3.3.7 1 1.7 1.6 2.9 1.6h24.8V152c0 1.6.8 3 2.4 3.4.3.1.4.1.6.1 1.3 0 2.5-.8 3.1-2l27.6-59c.5-1 .4-2.4-.3-3.3-.7-1-1.8-1.6-3-1.6zm-23.8 46.8V107c0-1.9-1.9-3.2-3.8-3.2H76l19.3-40.1V93c0 1.9.9 4.2 2.8 4.2h22.1l-18.3 39.2z" fill="#29abe2" data-color="1"></path>
</g>

</svg>